# xmcd
#
# Track frame offsets:
#	150
#	16817
#	37678
#	58915
#	79934
#	99471
#	118856
#	145666
#	176861
#	197267
#	214436
#	235094
#	252780
#	274047
#	301942
#
# Disc length: 4266 seconds
#
# Revision: 0
# Processed by: cddbd v1.5.2PL0 Copyright (c) Steve Scherf et al.
# Submitted via: EasyCDDAExtractor 11.0.2.1
#
DISCID=c810a80f
DTITLE=B Funk - Funk Related
DYEAR=2002
DGENRE=Rap
TTITLE0=Gettin' Naughtee (Hip Hop Feat. Zapp)
TTITLE1=Something 2 Dance 2
TTITLE2=Back For The Loot
TTITLE3=Stress In The Game
TTITLE4=Keep It Real
TTITLE5=That's Us
TTITLE6=Game Tight
TTITLE7=Here's A Toast (Feat. Al Hudson and One Way)
TTITLE8=Nick Nack Pimping
TTITLE9=Get Rowdy
TTITLE10=Funk Related
TTITLE11=For My Oldest To My Youngest
TTITLE12=Destiny
TTITLE13=Funk it Up
TTITLE14=Gettin' Naughtee (Feat. Zapp)
EXTD=
EXTT0=
EXTT1=
EXTT2=
EXTT3=
EXTT4=
EXTT5=
EXTT6=
EXTT7=
EXTT8=
EXTT9=
EXTT10=
EXTT11=
EXTT12=
EXTT13=
EXTT14=
PLAYORDER=
